<?xml version="1.0" encoding="UTF-8"?>
<svg version="1.1" viewBox="0 0 1600 1600" width="100" height="100" xmlns="http://www.w3.org/2000/svg">
<path transform="translate(1046,633)" d="m0 0h26l17 3 12 4 14 7 9 7 10 9 10 13 9 16 6 15 5 17-1 7-7 3-17 2h-34l-9-3-2-3-5-21-4-8-6-7-12-6-10-2-11 1-8 3-5 5h-2l-2 4-6 9-3 11 1 11 3 7 6 8 12 9 23 12 34 15 19 12 10 9 2 1v2h2l9 11 7 10 9 17 5 16 1 5v23l-4 17-5 11-7 12-9 11-10 9-14 8-18 6-17 3-10 1h-16l-21-3-15-4-15-6-16-10-15-15-9-13-4-8-7-21-2-12v-8l3-5h55l7 2 3 5 3 20 3 10 5 9 8 4 13 4 12 2 9-1 13-5 5-5 5-10 2-6v-15l-3-12-6-11-5-5-5-4-19-9-16-7-33-16-17-10-10-9-9-9-11-18-6-18-2-8-1-9v-9l2-13 6-17 8-15 12-13 9-8 13-8 15-7 15-4z" fill="#0F4CF6"/>
<path transform="translate(795,633)" d="m0 0h28l18 3 12 4 11 6 13 10 7 7 9 11 10 15 6 13 3 13 1 14-1 3-5 2-17 2h-40l-5-6-4-16-4-10-11-12-9-4-11-2h-7l-10 3-7 6-9 13-3 8v13l5 10 8 9 14 9 22 11 17 7 23 12 14 10 10 9 10 12 8 13 7 16 4 20v20l-3 17-5 13-9 15-12 13-13 8-15 6-25 5-9 1h-22l-19-3-17-5-16-8-14-10-11-11-7-10-8-15-4-12-2-16v-14l5-2h51l7 2 3 13 3 17 6 12 6 5 9 4 18 4 12-2 9-4 7-6 6-10 2-6-1-20-4-10-5-8-9-7-21-11-10-4-15-7-24-12-11-7-15-12-9-11-9-15-6-14-3-15v-15l4-21 4-10 8-14 11-13 11-9 17-10 16-6 14-3z" fill="#0F4CF6"/>
<path transform="translate(535,630)" d="m0 0h27l16 2 15 4 12 5 11 7 10 8 9 10 10 15 8 18 7 24 3 17-2 4-8 2h-52l-6-3-2-22-3-16-6-10-7-6-9-4-10-2h-15l-12 3-8 6-8 9-6 12-5 19-4 30-2 36v33l2 29 3 17 5 16 5 9 5 5 5 3 12 4 10 2h12l12-4 8-5 7-9 5-11 2-11 2-20 1-3 23 3 43 2 4 1-1 9-8 30-6 15-8 14-8 11-10 11-10 7-15 7-20 6-14 2h-36l-17-3-15-5-14-7-9-7-13-13-10-16-8-17-6-18-4-19-2-19-1-17v-54l2-31 3-20 4-17 6-16 10-18 9-11 10-10 10-7 12-7 18-6 11-2z" fill="#0F4CF6"/>
</svg>
