<?xml version="1.0" encoding="UTF-8"?>
<svg version="1.1" viewBox="0 0 1600 1600" width="100" height="100" xmlns="http://www.w3.org/2000/svg">
<path transform="translate(835,633)" d="m0 0 72 1 12 1 3 3 5 18 17 71 9 35 12 46 7 26 6 21 7 14 9-41 16-62 11-42 8-31 10-37 4-17 2-4 3-1h55l28 1 2 4v322l-3 3-7 1h-51l-5-2-1-3v-132l2-44 1-34-4 2-3 12-5 22-8 30-12 43-15 51-12 39-6 12-5 4h-28l-8-2-6-8-11-33-10-36-10-35-9-31-8-29-6-22-6-15-2-1 2 61 1 33 1 83v31l-3 3-3 1h-56l-2-1-2-6v-299l1-25z" fill="#FD6400"/>
<path transform="translate(334,633)" d="m0 0 47 1 16 1 2 1v131h98l2-132h65l2 1v327l-4 2h-61l-2-2-1-13v-128h-40l-59-1v142l-2 2h-53l-8-1-2-2-1-11-1-315z" fill="#FD6400"/>
<path transform="translate(626,633)" d="m0 0h157l15 1 1 1v43l-1 9-1 1-9 1h-55v274l-4 2h-57l-5-1-1-3-1-15v-242l1-15h-45l-17-1-2-1-1-4v-23l1-25 1-1z" fill="#FD6400"/>
<path transform="translate(1171,634)" d="m0 0h34l23 1 4 2 1 31-1 172v69l115 1 2 2v47l-3 4-3 1-70 1h-101l-4-2-2-6v-318l1-4z" fill="#FD6400"/>
</svg>
